<?xml version="1.0" encoding="utf-8"?>
<!-- Generator: Adobe Illustrator 27.4.1, SVG Export Plug-In . SVG Version: 6.00 Build 0)  -->
<svg version="1.1" id="Layer_1" xmlns="http://www.w3.org/2000/svg" xmlns:xlink="http://www.w3.org/1999/xlink" x="0px" y="0px"
	 viewBox="0 0 512 512" style="enable-background:new 0 0 512 512;" xml:space="preserve">
<style type="text/css">
	.st0{fill:#333333;}
	.st1{fill:#FFFFFF;}
</style>
<path class="st0" d="M76.8,0h358.4C477.6,0,512,34.4,512,76.8v358.4c0,42.4-34.4,76.8-76.8,76.8H76.8C34.4,512,0,477.6,0,435.2V76.8
	C0,34.4,34.4,0,76.8,0z"/>
<path class="st1" d="M49.5,301.6c0.2-9.2,3.3-17.9,6.4-26.4c5.2-14.3,15.4-24.8,27.5-33.3c4.9-3.5,10.5-6,15.7-9.1
	c1.1-0.6,2.2-1.8,2.5-2.9c0.9-3.4,1.4-6.9,2.2-10.4c8.4-35.1,50.6-54.2,82.2-35.3c1.5,0.9,3.1,1.7,4.7,2.7c1.8-2.8,3.4-5.4,5.1-7.9
	c16.2-24.7,37.5-42.9,66.5-50.4c27.2-7,53.3-2.8,78,10c10.5,5.5,19,13.4,26.9,22.1c19.1,21,28.8,45.7,29.6,74c0.1,5.1,0,5.2,5,6.4
	c0.3,0.1,0.7,0.1,1,0.2c6,2.1,12.4,3.5,18.1,6.3c22.4,11,35.6,29,39.5,53.7c0.6,3.5,1.3,7.1,2,10.6c-0.7,5.2-1.1,10.5-2.2,15.6
	c-5.4,25-20.3,42.2-43.4,52.4c-11.2,5-23.3,6.9-35.5,6.9c-85.3,0-170.6-0.1-255.9-0.6c-19.5-0.1-36.6-7.2-50.7-21.1
	c-13.1-13-25.4-35-25.4-53.7"/>
</svg>
