<?xml version="1.0" encoding="utf-8"?>
<!-- Generator: Adobe Illustrator 26.1.0, SVG Export Plug-In . SVG Version: 6.00 Build 0)  -->
<svg version="1.1" id="Layer_1" xmlns="http://www.w3.org/2000/svg" xmlns:xlink="http://www.w3.org/1999/xlink" x="0px" y="0px"
	 viewBox="0 0 512 512" style="enable-background:new 0 0 512 512;" xml:space="preserve">
<style type="text/css">
	.st0{fill:#333333;}
	.st1{fill:#FFFFFF;}
	.st2{fill:#FFFFFF;stroke:#FFFFFF;stroke-width:66;}
</style>
<path class="st0" d="M76.8,0h358.4C477.6,0,512,34.4,512,76.8v358.4c0,42.4-34.4,76.8-76.8,76.8H76.8C34.4,512,0,477.6,0,435.2V76.8
	C0,34.4,34.4,0,76.8,0z"/>
<circle class="st1" cx="142" cy="138" r="37"/>
<path class="st2" d="M244,194v198 M142,194v198"/>
<path class="st1" d="M276,282c0-20,13-40,36-40c24,0,33,18,33,45v105h66V279c0-61-32-89-76-89c-34,0-51,19-59,32"/>
</svg>
