<?xml version="1.0" encoding="utf-8"?>
<!-- Generator: Adobe Illustrator 27.0.0, SVG Export Plug-In . SVG Version: 6.00 Build 0)  -->
<svg version="1.1" id="Layer_1" xmlns="http://www.w3.org/2000/svg" xmlns:xlink="http://www.w3.org/1999/xlink" x="0px" y="0px"
	 viewBox="0 0 512 512" style="enable-background:new 0 0 512 512;" xml:space="preserve">
<style type="text/css">
	.st0{fill:#333333;}
	.st1{fill:#FFFFFF;}
</style>
<path class="st0" d="M76.8,0h358.4C477.6,0,512,34.4,512,76.8v358.4c0,42.4-34.4,76.8-76.8,76.8H76.8C34.4,512,0,477.6,0,435.2V76.8
	C0,34.4,34.4,0,76.8,0z"/>
<path class="st1" d="M394,205.2c0-64.2-42.1-83-42.1-83c-21.2-9.7-57.6-13.8-95.5-14.1h-0.9c-37.8,0.3-74.2,4.4-95.5,14.1
	c0,0-42.1,18.8-42.1,83c0,14.7-0.3,32.3,0.2,50.9c1.5,62.8,11.5,124.7,69.6,140.1c26.8,7.1,49.8,8.6,68.3,7.6
	c33.6-1.9,52.4-12,52.4-12l-1.1-24.4c0,0-24,7.6-50.9,6.6c-26.7-0.9-54.9-2.9-59.2-35.6c-0.4-2.9-0.6-6-0.6-9.2
	c0,0,26.2,6.4,59.4,7.9c20.3,0.9,39.3-1.2,58.7-3.5c37.1-4.4,69.4-27.3,73.4-48.2C394.6,252.6,394,205.2,394,205.2z M344.4,287.9
	h-30.8v-75.5c0-15.9-6.7-24-20.1-24c-14.8,0-22.2,9.6-22.2,28.5v41.3h-30.6V217c0-18.9-7.4-28.5-22.2-28.5c-13.4,0-20.1,8.1-20.1,24
	v75.5h-30.8v-77.7c0-15.9,4-28.5,12.2-37.9c8.4-9.3,19.4-14.1,33-14.1c15.8,0,27.7,6.1,35.6,18.2l7.7,12.9l7.7-12.9
	c7.9-12.1,19.8-18.2,35.6-18.2c13.6,0,24.6,4.8,33,14.1c8.1,9.3,12.2,22,12.2,37.9V287.9z"/>
</svg>
