<?xml version="1.0" encoding="utf-8"?>
<!-- Generator: Adobe Illustrator 26.2.1, SVG Export Plug-In . SVG Version: 6.00 Build 0)  -->
<svg version="1.1" id="Layer_1" xmlns="http://www.w3.org/2000/svg" xmlns:xlink="http://www.w3.org/1999/xlink" x="0px" y="0px"
	 viewBox="0 0 512 512" style="enable-background:new 0 0 512 512;" xml:space="preserve">
<style type="text/css">
	.st0{fill:#333333;}
	.st1{fill:#FFFFFF;}
</style>
<path class="st0" d="M76.8,0h358.4C477.6,0,512,34.4,512,76.8v358.4c0,42.4-34.4,76.8-76.8,76.8H76.8C34.4,512,0,477.6,0,435.2V76.8
	C0,34.4,34.4,0,76.8,0z"/>
<path class="st1" d="M426.9,217.9c-17.1-73.1-74.7-125.6-149.1-135.8c-1.2-0.2-2.9,0.5-3.6-1.3c-6.5,0-13,0-19.4,0
	c-50.7,0-101.4,0-152,0c-5.3,3.6-11.9,5.6-15.6,11.4c-2.2,3.5-4.2,7-6.3,10.6c0,102.2,0,204.3,0,306.5c3.6,5.3,5.6,11.9,11.4,15.6
	c3.5,2.2,7,4.2,10.6,6.3c48.6,0,97.3,0,145.9,0c0.1-7.1-0.7-14.2-2.8-20.9c-6-20-21.2-29.2-40.1-33.6c-13-3.1-26.4-3.5-39.8-3.9
	c-11-0.4-20.2-4.2-24.5-15.4c-2.5-6.6-2.8-13,0.4-19.9c37.1-83,74-166.1,110.9-249.3c0.8-1.9,1.4-3.7,2.1-5.6
	c3.3,0.6,2.8,3.6,3.6,5.7c15.4,42.3,38.3,79.9,71.9,110.4c27.5,25,59.4,42.7,94.2,55.3c1.9,0.7,4.7,0.3,5.1,3.4
	c-1.2,0.4-2.3,0.7-3.4,1.2c-61,27.1-122,54.2-183,81.3c-1.3,0.6-2.8,0.9-3.9,2.6c9.9,4.8,19,10.5,26.7,18.2
	c19.7,19.5,26.3,44,26.4,70.8c38.5,0,77,0,115.6,0c11.2-3.6,18.4-11.4,23.1-21.9c0-50.7,0-101.4,0-152c0-6.5,0-13,0-19.4
	C428.4,231.4,428.4,224.5,426.9,217.9z M363.2,184.1c-14.6-1.1-34.8-21.5-35.5-35.9c-0.4-6.2,3.3-10.1,9.3-10.2
	c14.6-0.2,36.6,21.7,36.7,36.5C373.9,180.9,369.8,184.6,363.2,184.1z"/>
</svg>
