<?xml version="1.0" encoding="utf-8"?>
<!-- Generator: Adobe Illustrator 27.7.0, SVG Export Plug-In . SVG Version: 6.00 Build 0)  -->
<svg version="1.1" id="Layer_1" xmlns="http://www.w3.org/2000/svg" xmlns:xlink="http://www.w3.org/1999/xlink" x="0px" y="0px"
	 viewBox="0 0 512 512" style="enable-background:new 0 0 512 512;" xml:space="preserve">
<style type="text/css">
	.st0{fill:#333333;}
	.st1{fill:#FFFFFF;}
</style>
<path class="st0" d="M76.8,0h358.4C477.6,0,512,34.4,512,76.8v358.4c0,42.4-34.4,76.8-76.8,76.8H76.8C34.4,512,0,477.6,0,435.2V76.8
	C0,34.4,34.4,0,76.8,0z"/>
<path class="st1" d="M268.2,79.4c1.2,0.2,2.5,0.5,3.7,0.7c5.3,0.6,10.7,1.1,16,1.7c10.4,1.2,20.5,3.8,30.4,7.2
	c10.3,3.5,20.1,8.3,29.3,14.3c8.9,5.8,17,12.5,24.3,20.3c9.1,9.7,16.5,20.5,22.6,32.2c4.7,9.1,8.5,18.6,11.5,28.4
	c0.7,2.2,1.3,4.5,2,6.8c-7,1.8-13.8,3.5-20.7,5.3c-2.5,0.7-5,1.4-7.5,2.2c-1,0.3-1.5,0.4-1.9-1c-3.8-13.3-8.9-26-16.5-37.6
	c-7.2-10.9-16-20.3-26.7-27.9c-7.6-5.3-15.5-9.7-24.3-12.6c-5.4-1.8-10.9-3.7-16.4-5c-5.5-1.3-11.2-2-16.8-2.6c-7-0.7-14-1-21-1.2
	c-4.3-0.1-8.6,0-12.8,0.5c-6.2,0.8-12.4,1.9-18.5,3c-7.3,1.3-14.3,3.7-21.1,6.5c-8.8,3.6-16.8,8.4-24.2,14.4
	c-9,7.2-16.3,15.9-22.3,25.6c-4.5,7.2-8,14.8-11,22.6c-3,8.1-5.4,16.4-7,24.8c-1.1,6.1-2,12.2-2.8,18.3c-0.7,5.5-1.2,11-1.4,16.4
	c-0.3,7.9-0.5,15.8-0.3,23.7c0.1,5.2,0.8,10.5,1.3,15.7c0.6,5.4,1.1,10.8,2.1,16.1c1.1,6.1,2.5,12.3,4.2,18.3
	c3,10.4,6.9,20.4,12.2,29.8c3.6,6.5,7.8,12.7,12.7,18.3c5.8,6.8,12.5,12.6,20,17.5c10.5,6.9,21.9,11.7,34,14.6
	c5.2,1.2,10.4,2.3,15.6,3.1c4.4,0.6,8.8,0.9,13.2,1c6,0.2,12.1,0.2,18.1,0c4.3-0.2,8.7-0.9,13-1.3c7-0.6,13.8-2.1,20.6-4.1
	c6.6-2,13-4.3,18.9-8c5.4-3.4,10.8-6.9,15.7-11c11.9-9.9,20.8-21.9,24.2-37.3c0.8-3.7,1.3-7.5,1.7-11.3c1-8.4-0.5-16.6-3.2-24.5
	c-2.1-6.1-5.4-11.4-9.7-16.2c-3.7-4.2-8-7.7-12.6-10.9c-0.6-0.4-1.4-0.8-2.2-1.3c-0.8,4-1.4,7.9-2.3,11.8
	c-2.5,11.7-6.7,22.7-13.6,32.6c-7,9.9-15.8,17.5-27,22.5c-6.7,3-13.7,5.1-20.9,5.9c-6.7,0.8-13.5,1.2-20.2,0.7
	c-14.6-1.1-28.1-5.9-39.6-15.1c-6.4-5.1-11.4-11.4-15-18.8c-2.8-5.7-4.5-11.7-5.2-18c-1.8-16.7,2.6-31.4,14-43.9
	c7.8-8.5,17.5-14.2,28.4-17.8c5.2-1.7,10.5-2.9,15.9-4.1c1.9-0.5,3.9-0.6,5.9-0.7c7.3-0.3,14.6-0.7,21.9-0.7c5.1,0,10.2,0.6,15.3,1
	c3.9,0.3,7.8,0.8,12,1.2c-0.5-2.5-0.8-4.9-1.5-7.3c-1.3-4.6-2.9-9-5.4-13.1c-4.7-7.8-11.3-13-19.9-15.7c-4.4-1.4-8.9-2.3-13.5-2.4
	c-3-0.1-6-0.5-8.9-0.3c-3.5,0.3-7,1-10.4,1.8c-9.4,2.3-17,7.4-23,15c-0.6,0.8-1.2,1.7-1.8,2.6c-8.5-5.8-16.8-11.5-25.4-17.4
	c1.7-2.3,3.3-4.7,5.1-6.8c4.9-5.8,10.6-10.8,17.1-14.9c7-4.4,14.5-7.3,22.5-9.3c8-2,16.2-2.4,24.4-2c9.7,0.4,19.3,2.1,28.4,5.8
	c11.5,4.7,21,12.1,28.2,22.3c6,8.4,9.9,17.6,12.3,27.4c1.1,4.7,2,9.4,2.7,14.2c0.4,2.7,0.5,5.5,0.8,8.3c0.1,0.5,0.5,1.3,1,1.5
	c6.5,3,12.8,6.2,18.6,10.4c6.1,4.3,12,8.9,16.6,14.9c3.3,4.2,6.5,8.4,9.3,12.8c4.4,6.7,7.2,14.1,8.9,21.9c1.1,5,1.9,10,2.4,15.1
	c0.4,4.7,0.7,9.4,0.3,14.1c-0.9,13.8-4.6,26.8-11.2,39c-3.7,6.8-8.2,13-13.3,18.9c-7.8,8.9-16.8,16.5-26.7,23
	c-8,5.1-16.5,9.2-25.4,12.3c-7.1,2.5-14.3,4.4-21.6,5.8c-4.1,0.8-8.3,1.3-12.5,1.8c-4.6,0.5-9.3,0.7-13.9,1.1
	c-0.2,0-0.4,0.2-0.5,0.3c-6.4,0-12.9,0-19.3,0c-0.3-0.1-0.7-0.3-1-0.3c-5-0.5-9.9-0.8-14.9-1.4c-5.3-0.7-10.5-1.6-15.7-2.8
	c-12.5-2.7-24.4-7.1-35.7-13c-10.9-5.7-20.7-12.9-29.5-21.6c-5.9-5.8-11.2-12.1-15.9-18.9c-5.4-7.8-10.2-16-13.8-24.7
	c-3-7.3-5.8-14.7-8.3-22.2c-1.6-5-2.7-10.1-3.8-15.2c-0.9-3.9-1.7-7.8-2.3-11.7c-0.6-3.4-1.1-6.9-1.5-10.3c-0.3-2.8-0.5-5.5-0.7-8.3
	c-0.3-4.2-0.8-8.4-1-12.6c-0.2-2.9-0.1-5.9-0.2-8.8c-0.1-4.5-0.3-8.9-0.1-13.4c0.2-4.7,0.7-9.4,1-14.1c0.2-3.2,0.3-6.4,0.7-9.5
	c0.7-5.1,1.6-10.1,2.4-15.2c1.4-9.3,3.6-18.4,6.5-27.2c2.2-6.7,4.8-13.2,7.5-19.7c3.9-9.3,9-17.9,14.8-26.1
	c5.7-7.9,12-15.2,19.4-21.5c4.2-3.6,8.5-7.1,13-10.2c7-4.7,14.3-8.9,22.2-12c5.9-2.3,11.9-4.6,18-6.3c6.3-1.7,12.8-2.8,19.2-3.9
	c6.1-1,12.2-1.4,18.3-2.1c0.6-0.1,1.2-0.2,1.7-0.4C255.3,79.4,261.8,79.4,268.2,79.4z M305.1,264.1c-0.5-0.2-0.9-0.4-1.2-0.5
	c-3.9-0.6-7.7-1.3-11.6-1.7c-5.5-0.6-11-1.2-16.4-1.3c-5.4-0.1-10.8,0.4-16.3,0.5c-5.3,0.1-10.4,1.2-15.3,2.8
	c-6.7,2.1-12.8,5.3-17.4,10.9c-4.7,5.8-6.7,12.4-5.4,19.7c1.2,6.3,4.6,11.4,9.9,15.3c6.9,5.1,14.9,7.3,23.3,7.8
	c5.4,0.3,10.7-0.2,16.1-1.3c7.2-1.5,13.5-4.4,18.8-9.5c5.9-5.7,9.5-12.8,11.6-20.7c1.3-4.9,2.2-9.9,3.1-14.9
	C304.5,269,304.7,266.6,305.1,264.1z"/>
</svg>
