<?xml version="1.0" standalone="no"?>
<!DOCTYPE svg PUBLIC "-//W3C//DTD SVG 20010904//EN"
 "http://www.w3.org/TR/2001/REC-SVG-20010904/DTD/svg10.dtd">
<svg version="1.0" xmlns="http://www.w3.org/2000/svg"
 width="1325.000000pt" height="1325.000000pt" viewBox="0 0 1325.000000 1325.000000"
 preserveAspectRatio="xMidYMid meet">
<metadata>
Created by potrace 1.14, written by Peter Selinger 2001-2017
</metadata>
<g transform="translate(0.000000,1325.000000) scale(0.100000,-0.100000)"
fill="#000000" stroke="none">
<path d="M741 13238 c-208 -23 -417 -140 -552 -308 -91 -114 -145 -237 -174
-400 -7 -37 -10 -638 -4 -645 2 -2 712 -712 1577 -1577 864 -866 1572 -1580
1573 -1588 0 -8 2 -1187 3 -2620 2 -2439 3 -2608 19 -2650 57 -146 170 -245
316 -274 41 -9 749 -12 2640 -11 l2584 0 543 -543 c299 -299 544 -545 544
-548 0 -2 -1742 -4 -3871 -4 -3035 0 -3881 3 -3913 12 -53 16 -118 81 -133
133 -8 29 -11 829 -9 2989 l1 2948 -937 938 c-867 867 -938 935 -939 906 -4
-221 1 -9241 6 -9266 31 -171 90 -304 188 -420 126 -150 292 -247 487 -285 65
-12 859 -14 5965 -12 3240 1 5899 5 5911 9 12 3 53 16 91 27 308 92 547 383
579 706 4 33 7 185 7 338 l0 279 -1579 1579 -1579 1579 -1 2593 c0 1425 -4
2612 -8 2637 -25 136 -139 261 -283 311 -53 18 -138 19 -2662 19 l-2606 0
-615 615 -615 615 3835 0 c3740 0 3836 -1 3877 -19 50 -23 93 -70 111 -119 11
-30 13 -565 14 -2941 l0 -2905 1054 -1054 c681 -680 1054 -1047 1055 -1035 5
111 0 9205 -5 9253 -10 96 -33 175 -76 265 -113 239 -322 404 -584 462 -64 15
-625 16 -5921 17 -3217 1 -5879 -2 -5914 -6z m7410 -4966 c46 -19 97 -71 115
-118 16 -41 17 -118 18 -930 1 -486 -2 -883 -6 -882 -14 5 -1937 1932 -1933
1937 7 12 1779 5 1806 -7z m-2193 -2342 l955 -955 -179 -3 c-98 -1 -506 -1
-906 0 l-726 3 -43 30 c-26 18 -53 50 -68 80 l-26 49 0 892 c0 876 0 892 19
876 10 -9 449 -447 974 -972z"/>
</g>
</svg>
