<?xml version="1.0" standalone="no"?>
<!DOCTYPE svg PUBLIC "-//W3C//DTD SVG 20010904//EN"
 "http://www.w3.org/TR/2001/REC-SVG-20010904/DTD/svg10.dtd">
<svg version="1.0" xmlns="http://www.w3.org/2000/svg"
 width="303.000000pt" height="303.000000pt" viewBox="0 0 303.000000 303.000000"
 preserveAspectRatio="xMidYMid meet">
<metadata>
Created by potrace 1.14, written by Peter Selinger 2001-2017
</metadata>
<g transform="translate(0.000000,303.000000) scale(0.100000,-0.100000)"
fill="#000000" stroke="none">
<path d="M284 2789 c-34 -17 -54 -62 -54 -121 l0 -53 320 -320 320 -320 0
-547 0 -548 23 -4 c12 -3 252 -5 532 -5 281 1 518 0 528 0 17 -1 357 -329 357
-344 0 -4 -392 -7 -870 -7 -943 0 -912 -2 -942 53 -9 17 -12 166 -13 625 l0
602 -128 128 -127 127 0 -874 c0 -796 1 -875 17 -901 9 -16 27 -33 40 -39 17
-8 384 -11 1229 -11 1107 0 1208 1 1234 17 37 21 50 52 50 116 l0 53 -321 321
-321 321 -1 539 c0 296 -2 543 -4 550 -4 9 -140 12 -550 11 l-544 0 -185 185
c-101 102 -184 187 -184 189 0 4 1710 3 1736 0 16 -3 49 -34 62 -58 8 -15 11
-196 11 -609 l0 -589 150 -150 151 -151 0 872 c0 655 -3 879 -12 898 -26 58
38 55 -1275 54 -791 0 -1215 -4 -1229 -10z m1582 -888 c47 -31 49 -41 50 -323
0 -148 -2 -268 -5 -268 -8 0 -601 593 -601 601 0 3 120 6 268 5 207 -1 272 -5
288 -15z m-155 -776 c5 -13 -473 -17 -524 -4 -69 18 -72 29 -73 324 -1 143 1
264 3 268 5 8 586 -567 594 -588z"/>
</g>
</svg>
